<mxfile host="app.diagrams.net" agent="Mozilla/5.0 (Windows NT 10.0; Win64; x64) AppleWebKit/537.36 (KHTML, like Gecko) Chrome/138.0.0.0 Safari/537.36" version="28.0.9">
  <diagram name="หน้า-1" id="BrPNlUBHskpZYSTOvkPR">
    <mxGraphModel grid="1" page="1" gridSize="10" guides="1" tooltips="1" connect="1" arrows="1" fold="1" pageScale="1" pageWidth="827" pageHeight="1169" math="0" shadow="0">
      <root>
        <mxCell id="0" />
        <mxCell id="1" parent="0" />
        <mxCell id="cT0a1dFJ5Bb9Jt9ZCZm9-25" style="edgeStyle=orthogonalEdgeStyle;rounded=0;orthogonalLoop=1;jettySize=auto;html=1;exitX=0.5;exitY=1;exitDx=0;exitDy=0;entryX=0.5;entryY=0;entryDx=0;entryDy=0;" edge="1" parent="1" source="cT0a1dFJ5Bb9Jt9ZCZm9-1" target="cT0a1dFJ5Bb9Jt9ZCZm9-2">
          <mxGeometry relative="1" as="geometry" />
        </mxCell>
        <mxCell id="cT0a1dFJ5Bb9Jt9ZCZm9-1" value="เริ่ม" style="ellipse;whiteSpace=wrap;html=1;" vertex="1" parent="1">
          <mxGeometry x="354" y="20" width="120" height="80" as="geometry" />
        </mxCell>
        <mxCell id="cT0a1dFJ5Bb9Jt9ZCZm9-21" style="edgeStyle=orthogonalEdgeStyle;rounded=0;orthogonalLoop=1;jettySize=auto;html=1;exitX=0.5;exitY=1;exitDx=0;exitDy=0;entryX=0;entryY=0.5;entryDx=0;entryDy=0;" edge="1" parent="1" source="cT0a1dFJ5Bb9Jt9ZCZm9-2" target="cT0a1dFJ5Bb9Jt9ZCZm9-20">
          <mxGeometry relative="1" as="geometry" />
        </mxCell>
        <mxCell id="cT0a1dFJ5Bb9Jt9ZCZm9-2" value="ประกาศ&lt;div&gt;ตัวแปล&lt;/div&gt;&lt;div&gt;N,Min_number,Max_number,&lt;/div&gt;&lt;div&gt;score,&lt;/div&gt;&lt;div&gt;number,&lt;/div&gt;&lt;div&gt;Number_player&lt;/div&gt;" style="rounded=0;whiteSpace=wrap;html=1;" vertex="1" parent="1">
          <mxGeometry x="326" y="120" width="176" height="100" as="geometry" />
        </mxCell>
        <mxCell id="nr02JSJziypIqnWcS6qu-23" style="edgeStyle=orthogonalEdgeStyle;rounded=0;orthogonalLoop=1;jettySize=auto;html=1;exitX=0.5;exitY=1;exitDx=0;exitDy=0;entryX=0.5;entryY=0;entryDx=0;entryDy=0;" edge="1" parent="1" source="cT0a1dFJ5Bb9Jt9ZCZm9-5" target="nr02JSJziypIqnWcS6qu-22">
          <mxGeometry relative="1" as="geometry" />
        </mxCell>
        <mxCell id="cT0a1dFJ5Bb9Jt9ZCZm9-5" value="แสดง score" style="shape=parallelogram;perimeter=parallelogramPerimeter;whiteSpace=wrap;html=1;fixedSize=1;" vertex="1" parent="1">
          <mxGeometry x="343" y="1230" width="120" height="60" as="geometry" />
        </mxCell>
        <mxCell id="cT0a1dFJ5Bb9Jt9ZCZm9-26" style="edgeStyle=orthogonalEdgeStyle;rounded=0;orthogonalLoop=1;jettySize=auto;html=1;exitX=0.5;exitY=1;exitDx=0;exitDy=0;entryX=0.5;entryY=0;entryDx=0;entryDy=0;" edge="1" parent="1" source="cT0a1dFJ5Bb9Jt9ZCZm9-6" target="cT0a1dFJ5Bb9Jt9ZCZm9-5">
          <mxGeometry relative="1" as="geometry" />
        </mxCell>
        <mxCell id="cT0a1dFJ5Bb9Jt9ZCZm9-6" value="สุ่มตัวเลข0ถึง100--&amp;gt;number" style="rounded=0;whiteSpace=wrap;html=1;" vertex="1" parent="1">
          <mxGeometry x="316" y="1130" width="166" height="70" as="geometry" />
        </mxCell>
        <mxCell id="nr02JSJziypIqnWcS6qu-109" style="edgeStyle=orthogonalEdgeStyle;rounded=0;orthogonalLoop=1;jettySize=auto;html=1;exitX=0.5;exitY=1;exitDx=0;exitDy=0;entryX=0.5;entryY=0;entryDx=0;entryDy=0;" edge="1" parent="1" source="cT0a1dFJ5Bb9Jt9ZCZm9-8" target="nr02JSJziypIqnWcS6qu-20">
          <mxGeometry relative="1" as="geometry" />
        </mxCell>
        <mxCell id="cT0a1dFJ5Bb9Jt9ZCZm9-8" value="&quot;ทายตัวเลข1-100&quot;" style="shape=parallelogram;perimeter=parallelogramPerimeter;whiteSpace=wrap;html=1;fixedSize=1;" vertex="1" parent="1">
          <mxGeometry x="339" y="1380" width="120" height="60" as="geometry" />
        </mxCell>
        <mxCell id="cT0a1dFJ5Bb9Jt9ZCZm9-30" value="จริง" style="edgeStyle=orthogonalEdgeStyle;rounded=0;orthogonalLoop=1;jettySize=auto;html=1;exitX=0.5;exitY=1;exitDx=0;exitDy=0;entryX=0.5;entryY=0;entryDx=0;entryDy=0;" edge="1" parent="1" source="cT0a1dFJ5Bb9Jt9ZCZm9-10" target="cT0a1dFJ5Bb9Jt9ZCZm9-12">
          <mxGeometry relative="1" as="geometry" />
        </mxCell>
        <mxCell id="cT0a1dFJ5Bb9Jt9ZCZm9-43" value="ไม่" style="edgeStyle=orthogonalEdgeStyle;rounded=0;orthogonalLoop=1;jettySize=auto;html=1;exitX=1;exitY=0.5;exitDx=0;exitDy=0;entryX=0.5;entryY=0;entryDx=0;entryDy=0;" edge="1" parent="1" source="cT0a1dFJ5Bb9Jt9ZCZm9-10" target="cT0a1dFJ5Bb9Jt9ZCZm9-36">
          <mxGeometry relative="1" as="geometry">
            <Array as="points">
              <mxPoint x="543.5" y="1905" />
              <mxPoint x="543.5" y="2200" />
              <mxPoint x="410.5" y="2200" />
            </Array>
          </mxGeometry>
        </mxCell>
        <mxCell id="cT0a1dFJ5Bb9Jt9ZCZm9-10" value="Number_player == number" style="rhombus;whiteSpace=wrap;html=1;" vertex="1" parent="1">
          <mxGeometry x="286" y="1820" width="226" height="170" as="geometry" />
        </mxCell>
        <mxCell id="nr02JSJziypIqnWcS6qu-61" style="edgeStyle=orthogonalEdgeStyle;rounded=0;orthogonalLoop=1;jettySize=auto;html=1;exitX=0.5;exitY=1;exitDx=0;exitDy=0;endArrow=none;endFill=0;" edge="1" parent="1" source="cT0a1dFJ5Bb9Jt9ZCZm9-12">
          <mxGeometry relative="1" as="geometry">
            <mxPoint x="40" y="2130" as="targetPoint" />
            <Array as="points">
              <mxPoint x="399" y="2130" />
            </Array>
          </mxGeometry>
        </mxCell>
        <mxCell id="cT0a1dFJ5Bb9Jt9ZCZm9-12" value="&lt;div style=&quot;text-align: left;&quot;&gt;&lt;span style=&quot;background-color: transparent; color: light-dark(rgb(0, 0, 0), rgb(255, 255, 255));&quot;&gt;แสดง &quot;ยินดีด้วยคุณทายถูก&quot;&lt;/span&gt;&lt;/div&gt;&lt;div style=&quot;text-align: left;&quot;&gt;&lt;span style=&quot;background-color: transparent; color: light-dark(rgb(0, 0, 0), rgb(255, 255, 255));&quot;&gt;แสดง score&lt;/span&gt;&lt;/div&gt;" style="shape=parallelogram;perimeter=parallelogramPerimeter;whiteSpace=wrap;html=1;fixedSize=1;" vertex="1" parent="1">
          <mxGeometry x="291" y="2020" width="216" height="60" as="geometry" />
        </mxCell>
        <mxCell id="cT0a1dFJ5Bb9Jt9ZCZm9-23" style="edgeStyle=orthogonalEdgeStyle;rounded=0;orthogonalLoop=1;jettySize=auto;html=1;exitX=0.5;exitY=1;exitDx=0;exitDy=0;entryX=0.5;entryY=0;entryDx=0;entryDy=0;" edge="1" parent="1" source="cT0a1dFJ5Bb9Jt9ZCZm9-14" target="cT0a1dFJ5Bb9Jt9ZCZm9-17">
          <mxGeometry relative="1" as="geometry" />
        </mxCell>
        <mxCell id="cT0a1dFJ5Bb9Jt9ZCZm9-14" value="&quot;คุณต้องการเล่นเกมหรือไม่ เล่นใส่ 1 ไม่เล่นใส่ -1&quot;" style="shape=parallelogram;perimeter=parallelogramPerimeter;whiteSpace=wrap;html=1;fixedSize=1;" vertex="1" parent="1">
          <mxGeometry x="258.5" y="300" width="311" height="100" as="geometry" />
        </mxCell>
        <mxCell id="cT0a1dFJ5Bb9Jt9ZCZm9-19" value="ไม่" style="edgeStyle=orthogonalEdgeStyle;rounded=0;orthogonalLoop=1;jettySize=auto;html=1;exitX=0;exitY=0.5;exitDx=0;exitDy=0;entryX=0.25;entryY=1;entryDx=0;entryDy=0;" edge="1" parent="1" source="nr02JSJziypIqnWcS6qu-68" target="cT0a1dFJ5Bb9Jt9ZCZm9-46">
          <mxGeometry x="-0.0841" relative="1" as="geometry">
            <mxPoint x="170" y="520" as="targetPoint" />
            <Array as="points">
              <mxPoint x="132" y="540" />
            </Array>
            <mxPoint x="260" y="580" as="sourcePoint" />
            <mxPoint as="offset" />
          </mxGeometry>
        </mxCell>
        <mxCell id="cT0a1dFJ5Bb9Jt9ZCZm9-24" style="edgeStyle=orthogonalEdgeStyle;rounded=0;orthogonalLoop=1;jettySize=auto;html=1;exitX=0.5;exitY=1;exitDx=0;exitDy=0;entryX=0.5;entryY=0;entryDx=0;entryDy=0;" edge="1" parent="1" source="cT0a1dFJ5Bb9Jt9ZCZm9-17">
          <mxGeometry relative="1" as="geometry">
            <mxPoint x="413" y="500" as="targetPoint" />
          </mxGeometry>
        </mxCell>
        <mxCell id="cT0a1dFJ5Bb9Jt9ZCZm9-17" value="รับค่าตัวเลข--&amp;gt;N" style="shape=parallelogram;perimeter=parallelogramPerimeter;whiteSpace=wrap;html=1;fixedSize=1;" vertex="1" parent="1">
          <mxGeometry x="354" y="420" width="120" height="60" as="geometry" />
        </mxCell>
        <mxCell id="cT0a1dFJ5Bb9Jt9ZCZm9-22" style="edgeStyle=orthogonalEdgeStyle;rounded=0;orthogonalLoop=1;jettySize=auto;html=1;exitX=1;exitY=0.5;exitDx=0;exitDy=0;entryX=0.5;entryY=0;entryDx=0;entryDy=0;" edge="1" parent="1" source="cT0a1dFJ5Bb9Jt9ZCZm9-20" target="cT0a1dFJ5Bb9Jt9ZCZm9-14">
          <mxGeometry relative="1" as="geometry" />
        </mxCell>
        <mxCell id="cT0a1dFJ5Bb9Jt9ZCZm9-20" value="" style="ellipse;whiteSpace=wrap;html=1;aspect=fixed;rotation=90;" vertex="1" parent="1">
          <mxGeometry x="394" y="240" width="40" height="40" as="geometry" />
        </mxCell>
        <mxCell id="nr02JSJziypIqnWcS6qu-55" style="edgeStyle=orthogonalEdgeStyle;rounded=0;orthogonalLoop=1;jettySize=auto;html=1;exitX=0.5;exitY=1;exitDx=0;exitDy=0;entryX=0.5;entryY=0;entryDx=0;entryDy=0;" edge="1" parent="1" source="cT0a1dFJ5Bb9Jt9ZCZm9-36" target="nr02JSJziypIqnWcS6qu-52">
          <mxGeometry relative="1" as="geometry" />
        </mxCell>
        <mxCell id="cT0a1dFJ5Bb9Jt9ZCZm9-36" value="score-10" style="rounded=0;whiteSpace=wrap;html=1;" vertex="1" parent="1">
          <mxGeometry x="339" y="2220" width="120" height="60" as="geometry" />
        </mxCell>
        <mxCell id="cT0a1dFJ5Bb9Jt9ZCZm9-47" style="edgeStyle=orthogonalEdgeStyle;rounded=0;orthogonalLoop=1;jettySize=auto;html=1;exitX=0.5;exitY=0;exitDx=0;exitDy=0;endArrow=none;endFill=0;" edge="1" parent="1" source="cT0a1dFJ5Bb9Jt9ZCZm9-46">
          <mxGeometry relative="1" as="geometry">
            <mxPoint x="190" y="260" as="targetPoint" />
            <Array as="points">
              <mxPoint x="184" y="274" />
              <mxPoint x="184" y="274" />
              <mxPoint x="184" y="260" />
            </Array>
          </mxGeometry>
        </mxCell>
        <mxCell id="cT0a1dFJ5Bb9Jt9ZCZm9-46" value="แสดง &quot;ใส่ตัวเลข1หรือ-1เท่านัน" style="shape=parallelogram;perimeter=parallelogramPerimeter;whiteSpace=wrap;html=1;fixedSize=1;" vertex="1" parent="1">
          <mxGeometry x="80" y="420" width="208.5" height="60" as="geometry" />
        </mxCell>
        <mxCell id="37qJnamjUVuuyolRtKUS-1" style="edgeStyle=orthogonalEdgeStyle;rounded=0;orthogonalLoop=1;jettySize=auto;html=1;exitX=0;exitY=0.5;exitDx=0;exitDy=0;entryX=0.5;entryY=0;entryDx=0;entryDy=0;" edge="1" parent="1" source="nr02JSJziypIqnWcS6qu-6" target="nr02JSJziypIqnWcS6qu-108">
          <mxGeometry relative="1" as="geometry" />
        </mxCell>
        <mxCell id="37qJnamjUVuuyolRtKUS-5" style="edgeStyle=orthogonalEdgeStyle;rounded=0;orthogonalLoop=1;jettySize=auto;html=1;exitX=1;exitY=0.5;exitDx=0;exitDy=0;" edge="1" parent="1" source="nr02JSJziypIqnWcS6qu-6" target="37qJnamjUVuuyolRtKUS-4">
          <mxGeometry relative="1" as="geometry" />
        </mxCell>
        <mxCell id="nr02JSJziypIqnWcS6qu-6" value="Number_player &amp;gt; Number" style="rhombus;whiteSpace=wrap;html=1;" vertex="1" parent="1">
          <mxGeometry x="297" y="2580" width="207" height="80" as="geometry" />
        </mxCell>
        <mxCell id="IvY5ynQhc9EizOiMxVFj-1" style="edgeStyle=orthogonalEdgeStyle;rounded=0;orthogonalLoop=1;jettySize=auto;html=1;exitX=0.5;exitY=1;exitDx=0;exitDy=0;entryX=1;entryY=0.5;entryDx=0;entryDy=0;" edge="1" parent="1" source="nr02JSJziypIqnWcS6qu-8" target="nr02JSJziypIqnWcS6qu-22">
          <mxGeometry relative="1" as="geometry">
            <Array as="points">
              <mxPoint x="220" y="3000" />
              <mxPoint x="720" y="3000" />
              <mxPoint x="720" y="1325" />
            </Array>
          </mxGeometry>
        </mxCell>
        <mxCell id="nr02JSJziypIqnWcS6qu-8" value="แสดง &quot;ค่าที่คุณใส่ มากเกิน&quot;&lt;div&gt;และช่วงของคำบอบ&lt;/div&gt;" style="shape=parallelogram;perimeter=parallelogramPerimeter;whiteSpace=wrap;html=1;fixedSize=1;" vertex="1" parent="1">
          <mxGeometry x="131.5" y="2790" width="177" height="60" as="geometry" />
        </mxCell>
        <mxCell id="IvY5ynQhc9EizOiMxVFj-2" style="edgeStyle=orthogonalEdgeStyle;rounded=0;orthogonalLoop=1;jettySize=auto;html=1;exitX=0.5;exitY=1;exitDx=0;exitDy=0;endArrow=none;endFill=0;" edge="1" parent="1" source="nr02JSJziypIqnWcS6qu-9">
          <mxGeometry relative="1" as="geometry">
            <mxPoint x="585" y="3000" as="targetPoint" />
          </mxGeometry>
        </mxCell>
        <mxCell id="nr02JSJziypIqnWcS6qu-9" value="แสดง &quot;ค่าที่คุณใส่ น้อยกว่า่&quot;&lt;div&gt;และช่วงของคำบอบ&lt;/div&gt;" style="shape=parallelogram;perimeter=parallelogramPerimeter;whiteSpace=wrap;html=1;fixedSize=1;" vertex="1" parent="1">
          <mxGeometry x="496.75" y="2790" width="177" height="60" as="geometry" />
        </mxCell>
        <mxCell id="nr02JSJziypIqnWcS6qu-19" value="เท็จ" style="edgeStyle=orthogonalEdgeStyle;rounded=0;orthogonalLoop=1;jettySize=auto;html=1;exitX=0;exitY=0.5;exitDx=0;exitDy=0;entryX=0.5;entryY=1;entryDx=0;entryDy=0;" edge="1" parent="1" source="nr02JSJziypIqnWcS6qu-20" target="nr02JSJziypIqnWcS6qu-21">
          <mxGeometry relative="1" as="geometry">
            <mxPoint x="180" y="1610" as="targetPoint" />
            <Array as="points">
              <mxPoint x="168" y="1695" />
            </Array>
          </mxGeometry>
        </mxCell>
        <mxCell id="nr02JSJziypIqnWcS6qu-27" value="จริง" style="edgeStyle=orthogonalEdgeStyle;rounded=0;orthogonalLoop=1;jettySize=auto;html=1;exitX=0.5;exitY=1;exitDx=0;exitDy=0;entryX=0.5;entryY=0;entryDx=0;entryDy=0;" edge="1" parent="1" source="nr02JSJziypIqnWcS6qu-20" target="cT0a1dFJ5Bb9Jt9ZCZm9-10">
          <mxGeometry relative="1" as="geometry" />
        </mxCell>
        <mxCell id="nr02JSJziypIqnWcS6qu-20" value="เป็นเลขหรือไม่" style="rhombus;whiteSpace=wrap;html=1;" vertex="1" parent="1">
          <mxGeometry x="249" y="1620" width="300" height="150" as="geometry" />
        </mxCell>
        <mxCell id="nr02JSJziypIqnWcS6qu-25" style="edgeStyle=orthogonalEdgeStyle;rounded=0;orthogonalLoop=1;jettySize=auto;html=1;exitX=0.5;exitY=0;exitDx=0;exitDy=0;entryX=0;entryY=0.5;entryDx=0;entryDy=0;" edge="1" parent="1" source="nr02JSJziypIqnWcS6qu-21" target="nr02JSJziypIqnWcS6qu-22">
          <mxGeometry relative="1" as="geometry" />
        </mxCell>
        <mxCell id="nr02JSJziypIqnWcS6qu-21" value="แสดง &quot;ใส่ตัวเลขเท่านัน&quot;" style="shape=parallelogram;perimeter=parallelogramPerimeter;whiteSpace=wrap;html=1;fixedSize=1;" vertex="1" parent="1">
          <mxGeometry x="90" y="1530" width="156" height="60" as="geometry" />
        </mxCell>
        <mxCell id="nr02JSJziypIqnWcS6qu-113" style="edgeStyle=orthogonalEdgeStyle;rounded=0;orthogonalLoop=1;jettySize=auto;html=1;exitX=0.5;exitY=1;exitDx=0;exitDy=0;entryX=0.5;entryY=0;entryDx=0;entryDy=0;" edge="1" parent="1" source="nr02JSJziypIqnWcS6qu-22" target="cT0a1dFJ5Bb9Jt9ZCZm9-8">
          <mxGeometry relative="1" as="geometry" />
        </mxCell>
        <mxCell id="nr02JSJziypIqnWcS6qu-22" value="" style="ellipse;whiteSpace=wrap;html=1;aspect=fixed;" vertex="1" parent="1">
          <mxGeometry x="384" y="1310" width="30" height="30" as="geometry" />
        </mxCell>
        <mxCell id="nr02JSJziypIqnWcS6qu-32" value="จบ" style="ellipse;whiteSpace=wrap;html=1;" vertex="1" parent="1">
          <mxGeometry x="339" y="3280" width="120" height="80" as="geometry" />
        </mxCell>
        <mxCell id="nr02JSJziypIqnWcS6qu-110" style="edgeStyle=orthogonalEdgeStyle;rounded=0;orthogonalLoop=1;jettySize=auto;html=1;exitX=0.5;exitY=1;exitDx=0;exitDy=0;entryX=0.5;entryY=1;entryDx=0;entryDy=0;" edge="1" parent="1" target="cT0a1dFJ5Bb9Jt9ZCZm9-20">
          <mxGeometry relative="1" as="geometry">
            <mxPoint x="40" y="250.84209241365133" as="targetPoint" />
            <mxPoint x="110" y="2530" as="sourcePoint" />
            <Array as="points">
              <mxPoint x="40" y="2530" />
              <mxPoint x="40" y="260" />
            </Array>
          </mxGeometry>
        </mxCell>
        <mxCell id="nr02JSJziypIqnWcS6qu-54" value="จริง" style="edgeStyle=orthogonalEdgeStyle;rounded=0;orthogonalLoop=1;jettySize=auto;html=1;exitX=0;exitY=0.5;exitDx=0;exitDy=0;entryX=0.5;entryY=0;entryDx=0;entryDy=0;" edge="1" parent="1" source="nr02JSJziypIqnWcS6qu-52" target="nr02JSJziypIqnWcS6qu-53">
          <mxGeometry relative="1" as="geometry" />
        </mxCell>
        <mxCell id="nr02JSJziypIqnWcS6qu-57" value="ไม่" style="edgeStyle=orthogonalEdgeStyle;rounded=0;orthogonalLoop=1;jettySize=auto;html=1;exitX=0.5;exitY=1;exitDx=0;exitDy=0;entryX=0.5;entryY=0;entryDx=0;entryDy=0;" edge="1" parent="1" source="nr02JSJziypIqnWcS6qu-52" target="nr02JSJziypIqnWcS6qu-6">
          <mxGeometry relative="1" as="geometry" />
        </mxCell>
        <mxCell id="nr02JSJziypIqnWcS6qu-52" value="score = 0?" style="rhombus;whiteSpace=wrap;html=1;" vertex="1" parent="1">
          <mxGeometry x="294" y="2320" width="210" height="80" as="geometry" />
        </mxCell>
        <mxCell id="nr02JSJziypIqnWcS6qu-60" style="edgeStyle=orthogonalEdgeStyle;rounded=0;orthogonalLoop=1;jettySize=auto;html=1;exitX=0.5;exitY=1;exitDx=0;exitDy=0;endArrow=none;endFill=0;" edge="1" parent="1" source="nr02JSJziypIqnWcS6qu-53">
          <mxGeometry relative="1" as="geometry">
            <mxPoint x="110" y="2530" as="targetPoint" />
            <Array as="points">
              <mxPoint x="220" y="2530" />
            </Array>
          </mxGeometry>
        </mxCell>
        <mxCell id="nr02JSJziypIqnWcS6qu-53" value="แสดง &quot;คุณแพ่&quot;" style="shape=parallelogram;perimeter=parallelogramPerimeter;whiteSpace=wrap;html=1;fixedSize=1;" vertex="1" parent="1">
          <mxGeometry x="160" y="2420" width="120" height="60" as="geometry" />
        </mxCell>
        <mxCell id="nr02JSJziypIqnWcS6qu-99" style="edgeStyle=orthogonalEdgeStyle;rounded=0;orthogonalLoop=1;jettySize=auto;html=1;exitX=0.5;exitY=1;exitDx=0;exitDy=0;entryX=0.5;entryY=0;entryDx=0;entryDy=0;" edge="1" parent="1" source="nr02JSJziypIqnWcS6qu-68" target="nr02JSJziypIqnWcS6qu-82">
          <mxGeometry relative="1" as="geometry" />
        </mxCell>
        <mxCell id="nr02JSJziypIqnWcS6qu-100" value="จริง" style="edgeLabel;html=1;align=center;verticalAlign=middle;resizable=0;points=[];" connectable="0" vertex="1" parent="nr02JSJziypIqnWcS6qu-99">
          <mxGeometry x="-0.0107" y="1" relative="1" as="geometry">
            <mxPoint as="offset" />
          </mxGeometry>
        </mxCell>
        <mxCell id="nr02JSJziypIqnWcS6qu-68" value="เป็นตัวเลขหรือไม่" style="rhombus;whiteSpace=wrap;html=1;" vertex="1" parent="1">
          <mxGeometry x="264" y="500" width="300" height="80" as="geometry" />
        </mxCell>
        <mxCell id="nr02JSJziypIqnWcS6qu-84" style="edgeStyle=orthogonalEdgeStyle;rounded=0;orthogonalLoop=1;jettySize=auto;html=1;exitX=1;exitY=0.5;exitDx=0;exitDy=0;entryX=0.5;entryY=0;entryDx=0;entryDy=0;" edge="1" parent="1" source="nr02JSJziypIqnWcS6qu-82" target="nr02JSJziypIqnWcS6qu-32">
          <mxGeometry relative="1" as="geometry">
            <Array as="points">
              <mxPoint x="760" y="770" />
              <mxPoint x="760" y="3200" />
              <mxPoint x="399" y="3200" />
            </Array>
          </mxGeometry>
        </mxCell>
        <mxCell id="nr02JSJziypIqnWcS6qu-85" value="จริง" style="edgeLabel;html=1;align=center;verticalAlign=middle;resizable=0;points=[];" connectable="0" vertex="1" parent="nr02JSJziypIqnWcS6qu-84">
          <mxGeometry x="-0.6966" relative="1" as="geometry">
            <mxPoint as="offset" />
          </mxGeometry>
        </mxCell>
        <mxCell id="nr02JSJziypIqnWcS6qu-101" value="ไม่จริง" style="edgeStyle=orthogonalEdgeStyle;rounded=0;orthogonalLoop=1;jettySize=auto;html=1;exitX=0.5;exitY=1;exitDx=0;exitDy=0;" edge="1" parent="1" source="nr02JSJziypIqnWcS6qu-82" target="nr02JSJziypIqnWcS6qu-93">
          <mxGeometry relative="1" as="geometry" />
        </mxCell>
        <mxCell id="nr02JSJziypIqnWcS6qu-82" value="N==-1" style="rhombus;whiteSpace=wrap;html=1;" vertex="1" parent="1">
          <mxGeometry x="258.5" y="730" width="300" height="80" as="geometry" />
        </mxCell>
        <mxCell id="nr02JSJziypIqnWcS6qu-95" value="จริง" style="edgeStyle=orthogonalEdgeStyle;rounded=0;orthogonalLoop=1;jettySize=auto;html=1;exitX=0.5;exitY=1;exitDx=0;exitDy=0;entryX=0.5;entryY=0;entryDx=0;entryDy=0;" edge="1" parent="1" source="nr02JSJziypIqnWcS6qu-93" target="nr02JSJziypIqnWcS6qu-102">
          <mxGeometry relative="1" as="geometry">
            <mxPoint x="408.5" y="980" as="targetPoint" />
          </mxGeometry>
        </mxCell>
        <mxCell id="nr02JSJziypIqnWcS6qu-106" value="ไม่" style="edgeStyle=orthogonalEdgeStyle;rounded=0;orthogonalLoop=1;jettySize=auto;html=1;exitX=0;exitY=0.5;exitDx=0;exitDy=0;entryX=0.25;entryY=1;entryDx=0;entryDy=0;" edge="1" parent="1" source="nr02JSJziypIqnWcS6qu-93" target="cT0a1dFJ5Bb9Jt9ZCZm9-46">
          <mxGeometry relative="1" as="geometry" />
        </mxCell>
        <mxCell id="nr02JSJziypIqnWcS6qu-93" value="N==1" style="rhombus;whiteSpace=wrap;html=1;" vertex="1" parent="1">
          <mxGeometry x="258.5" y="860" width="300" height="80" as="geometry" />
        </mxCell>
        <mxCell id="nr02JSJziypIqnWcS6qu-105" style="edgeStyle=orthogonalEdgeStyle;rounded=0;orthogonalLoop=1;jettySize=auto;html=1;exitX=0.5;exitY=1;exitDx=0;exitDy=0;entryX=0.5;entryY=0;entryDx=0;entryDy=0;" edge="1" parent="1" source="nr02JSJziypIqnWcS6qu-102" target="cT0a1dFJ5Bb9Jt9ZCZm9-6">
          <mxGeometry relative="1" as="geometry" />
        </mxCell>
        <mxCell id="nr02JSJziypIqnWcS6qu-102" value="score--&amp;gt;100" style="rounded=0;whiteSpace=wrap;html=1;" vertex="1" parent="1">
          <mxGeometry x="348.5" y="1040" width="120" height="60" as="geometry" />
        </mxCell>
        <mxCell id="37qJnamjUVuuyolRtKUS-2" style="edgeStyle=orthogonalEdgeStyle;rounded=0;orthogonalLoop=1;jettySize=auto;html=1;exitX=0.5;exitY=1;exitDx=0;exitDy=0;entryX=0.5;entryY=0;entryDx=0;entryDy=0;" edge="1" parent="1" source="nr02JSJziypIqnWcS6qu-108" target="nr02JSJziypIqnWcS6qu-8">
          <mxGeometry relative="1" as="geometry" />
        </mxCell>
        <mxCell id="nr02JSJziypIqnWcS6qu-108" value="Number_player -1--&amp;gt;Max_number" style="rounded=0;whiteSpace=wrap;html=1;" vertex="1" parent="1">
          <mxGeometry x="160" y="2680" width="120" height="60" as="geometry" />
        </mxCell>
        <mxCell id="37qJnamjUVuuyolRtKUS-6" style="edgeStyle=orthogonalEdgeStyle;rounded=0;orthogonalLoop=1;jettySize=auto;html=1;exitX=0.5;exitY=1;exitDx=0;exitDy=0;" edge="1" parent="1" source="37qJnamjUVuuyolRtKUS-4" target="nr02JSJziypIqnWcS6qu-9">
          <mxGeometry relative="1" as="geometry" />
        </mxCell>
        <mxCell id="37qJnamjUVuuyolRtKUS-4" value="Number_player +1--&amp;gt;Min_number" style="rounded=0;whiteSpace=wrap;html=1;" vertex="1" parent="1">
          <mxGeometry x="520.5" y="2680" width="129.5" height="60" as="geometry" />
        </mxCell>
      </root>
    </mxGraphModel>
  </diagram>
</mxfile>
